<?xml version="1.0" standalone="no"?>
<!DOCTYPE svg PUBLIC "-//W3C//DTD SVG 20010904//EN"
 "http://www.w3.org/TR/2001/REC-SVG-20010904/DTD/svg10.dtd">
<svg version="1.0" xmlns="http://www.w3.org/2000/svg"
 width="515.000000pt" height="515.000000pt" viewBox="0 0 515.000000 515.000000"
 preserveAspectRatio="xMidYMid meet">

<g transform="translate(0.000000,515.000000) scale(0.100000,-0.100000)"
fill="#000000" stroke="none">
<path d="M2355 3685 c-117 -41 -174 -54 -315 -70 -181 -21 -224 -34 -301 -96
-82 -66 -84 -66 -175 -84 -46 -9 -101 -28 -140 -49 -47 -26 -93 -41 -176 -56
-157 -29 -189 -41 -394 -141 -99 -48 -200 -93 -225 -98 -64 -15 -206 -75 -263
-114 -41 -26 -54 -43 -75 -94 -20 -47 -38 -71 -76 -101 -66 -52 -99 -88 -91
-101 10 -16 76 -31 139 -31 44 0 65 -5 87 -22 28 -20 34 -21 105 -10 41 6 102
23 135 37 83 35 106 33 155 -14 22 -21 61 -46 87 -56 l46 -17 64 31 c34 17 91
36 125 42 l63 11 6 49 c4 27 8 49 11 49 2 0 15 -7 29 -17 24 -16 26 -15 63 21
l38 37 37 -22 c31 -18 41 -20 62 -10 51 23 164 10 171 -21 5 -15 16 -18 77
-19 39 -1 82 -4 96 -8 22 -7 19 -9 -24 -16 -26 -4 -72 -5 -102 -2 -38 4 -76 0
-127 -14 -90 -25 -196 -65 -221 -84 -22 -16 -16 -20 48 -29 48 -6 50 -9 36
-36 -14 -25 5 -52 54 -77 25 -13 38 -13 88 -3 37 8 89 11 143 6 95 -7 115 -12
115 -32 0 -18 1 -18 80 10 59 22 81 24 202 23 l136 -2 41 -33 c23 -18 41 -36
41 -41 0 -4 -23 -18 -50 -31 -58 -27 -53 -34 30 -45 30 -3 63 -9 72 -11 32 -9
75 -140 107 -329 67 -391 76 -517 42 -592 -11 -23 -17 -44 -13 -47 3 -3 67 -6
142 -6 l136 0 0 144 -1 144 48 95 c85 167 157 228 280 237 l69 5 -37 48 c-31
41 -41 47 -72 47 l-35 0 18 28 c56 87 213 221 325 278 53 26 223 68 327 79
l64 7 -7 -46 c-7 -44 4 -62 20 -35 16 25 90 69 117 69 51 0 86 -26 98 -73 19
-74 21 -75 42 -27 13 31 18 59 15 88 l-5 42 72 0 c77 0 235 27 251 43 7 6 -4
7 -30 3 -87 -13 -235 -19 -235 -9 0 6 7 26 15 46 19 45 41 52 232 79 81 11
162 22 178 25 24 4 38 -3 70 -30 l40 -35 40 20 c36 19 46 20 117 10 93 -14
128 -30 164 -78 26 -33 71 -63 121 -78 17 -5 31 2 62 30 23 20 41 42 41 49 0
7 -20 23 -45 36 l-46 24 33 5 c36 6 45 25 47 100 1 41 -5 51 -54 110 -30 35
-55 67 -55 71 0 4 11 31 25 61 39 84 43 80 -101 103 -98 16 -143 32 -181 67
-18 17 -40 21 -130 25 -84 4 -127 11 -196 34 -54 19 -136 36 -210 45 -106 12
-234 35 -289 50 -9 3 -25 20 -36 38 -11 18 -33 40 -48 48 -16 8 -55 31 -87 51
-31 19 -88 47 -125 63 -37 15 -88 42 -113 60 -25 17 -82 53 -128 79 l-82 47
-187 14 c-102 8 -194 16 -203 19 -21 7 -360 35 -419 35 -25 0 -76 -12 -115
-25z m-100 -675 c14 -11 13 -15 -5 -27 -13 -10 -19 -21 -15 -33 5 -16 -2 -19
-47 -22 -42 -4 -64 0 -106 20 l-53 25 22 23 c31 33 169 43 204 14z m-259 -181
c84 -31 85 -32 82 -63 l-3 -31 -88 -3 c-85 -3 -90 -2 -158 35 -57 31 -69 41
-69 63 0 24 2 25 75 27 62 2 89 -3 161 -28z m662 -80 l-3 -94 -35 -3 c-28 -3
-33 -1 -22 9 6 7 12 16 12 20 0 4 -29 26 -65 49 -36 23 -65 46 -65 51 0 5 10
14 23 19 94 39 143 56 150 50 4 -4 6 -49 5 -101z m162 35 c0 -90 -36 -160 -71
-139 -12 8 -49 131 -49 164 0 38 5 41 67 41 l53 0 0 -66z m155 24 c-8 -50 -9
-52 -54 -67 -61 -20 -68 -16 -74 42 -2 28 -3 55 0 60 2 4 34 7 69 7 l66 0 -7
-42z m485 -80 c-32 -15 -71 -22 -135 -24 -66 -3 -82 -1 -60 6 47 14 177 38
210 38 29 0 28 -1 -15 -20z m840 8 c0 -2 -17 -15 -37 -28 -28 -16 -53 -23 -94
-23 -50 0 -64 -5 -125 -46 -115 -76 -157 -92 -299 -109 -81 -9 -158 -26 -365
-77 -97 -24 -163 -56 -288 -139 -112 -75 -168 -132 -252 -257 -27 -40 -40 -47
-40 -19 0 9 -3 26 -6 37 -4 16 2 23 25 32 33 12 47 46 37 89 -5 19 -11 24 -24
19 -9 -3 -38 -9 -65 -12 -37 -5 -52 -2 -67 12 -24 22 -12 35 33 35 26 0 27 2
27 50 0 47 -2 50 -25 50 l-25 0 23 46 22 47 87 -6 c87 -6 148 6 148 28 0 5 -4
24 -9 41 l-9 32 82 17 c99 21 101 23 81 45 -15 17 -15 19 2 24 11 3 64 10 119
16 69 6 141 22 228 50 l127 40 169 0 c160 0 170 -1 170 -19 0 -28 65 -33 108
-8 18 11 48 23 65 27 34 8 177 13 177 6z m-1333 -70 c-34 -30 -121 -66 -132
-54 -3 2 3 15 12 27 19 29 88 61 128 60 l30 0 -38 -33z m-459 -212 c23 -16 26
-15 97 12 11 4 0 -12 -25 -35 l-45 -42 -54 15 c-59 17 -88 37 -77 55 11 16 78
13 104 -5z m155 -364 c18 -14 28 -34 33 -65 4 -30 11 -45 21 -45 31 0 -10 -96
-80 -190 l-42 -55 -7 40 c-4 22 -7 81 -7 132 -1 101 6 116 59 128 16 4 30 9
30 12 0 3 -13 21 -30 40 -18 20 -30 45 -30 62 0 45 14 46 21 2 3 -27 14 -47
32 -61z"/>
</g>
</svg>
