<?xml version="1.0" standalone="no"?>
<!DOCTYPE svg PUBLIC "-//W3C//DTD SVG 20010904//EN"
 "http://www.w3.org/TR/2001/REC-SVG-20010904/DTD/svg10.dtd">
<svg version="1.0" xmlns="http://www.w3.org/2000/svg"
 width="2048.000000pt" height="2048.000000pt" viewBox="0 0 2048.000000 2048.000000"
 preserveAspectRatio="xMidYMid meet">

<g transform="translate(0.000000,2048.000000) scale(0.100000,-0.100000)"
fill="#000000" stroke="none">
<path d="M6900 12887 c-3 -2 -30 -7 -60 -10 -30 -4 -124 -33 -210 -65 -165
-63 -211 -73 -440 -98 -80 -8 -182 -19 -227 -24 -81 -9 -230 -44 -268 -63 -11
-6 -62 -44 -113 -86 -188 -152 -177 -148 -402 -182 -76 -11 -138 -37 -260
-110 -56 -33 -89 -43 -215 -68 -83 -17 -175 -32 -205 -36 -113 -12 -266 -66
-391 -136 -47 -27 -89 -49 -94 -49 -6 0 -41 -15 -80 -34 -38 -19 -101 -49
-140 -66 -38 -18 -88 -46 -110 -62 -38 -26 -125 -57 -220 -77 -88 -19 -282
-95 -375 -147 -14 -8 -50 -28 -81 -45 -107 -58 -124 -78 -159 -190 -17 -55
-39 -106 -48 -114 -9 -8 -55 -42 -101 -76 -109 -80 -181 -157 -181 -196 0 -25
194 -63 323 -63 74 0 75 -1 118 -41 l44 -41 125 21 c176 31 207 39 248 65 63
39 120 56 184 56 l62 0 72 -75 c39 -41 78 -75 85 -75 7 0 48 -14 91 -32 77
-31 79 -32 106 -15 15 10 67 38 115 62 84 42 188 69 297 77 l35 3 3 98 c1 53
5 97 8 97 3 0 28 -16 57 -35 56 -38 72 -42 84 -21 4 7 31 39 59 70 l52 58 78
-45 c68 -39 81 -43 94 -31 27 23 88 44 129 44 22 0 81 -9 131 -21 69 -16 90
-25 86 -35 -3 -8 -8 -20 -11 -27 -5 -11 23 -15 137 -20 166 -8 248 -17 248
-27 0 -4 -17 -10 -37 -13 -21 -2 -75 -11 -121 -18 -73 -12 -91 -11 -144 2 -59
16 -62 16 -181 -13 -67 -16 -131 -31 -141 -34 -37 -7 -121 -37 -130 -45 -6 -5
-18 -9 -27 -9 -17 0 -160 -71 -187 -93 -19 -15 -1 -27 48 -32 105 -10 151 -18
156 -27 3 -5 -6 -24 -20 -43 -14 -18 -26 -37 -26 -42 0 -10 93 -91 132 -115
36 -23 57 -22 153 2 118 30 291 26 458 -12 35 -7 47 -14 43 -24 -3 -8 -9 -21
-12 -29 -10 -24 29 -18 103 15 36 17 70 30 75 30 5 0 30 10 56 22 60 28 162
30 250 5 61 -18 65 -18 168 2 l106 20 93 -74 c51 -41 96 -78 99 -84 7 -11 -74
-55 -157 -86 -39 -15 -46 -20 -35 -31 7 -7 40 -15 73 -17 33 -3 98 -11 144
-18 l85 -14 52 -110 c29 -60 57 -128 63 -150 15 -60 60 -299 70 -385 6 -41 17
-107 25 -146 19 -90 35 -191 41 -254 2 -27 14 -117 26 -202 31 -212 31 -353 0
-438 -13 -36 -32 -79 -42 -96 -10 -17 -16 -34 -12 -37 8 -8 537 -9 545 -1 3 3
1 22 -5 42 -6 22 -11 124 -11 247 0 270 -1 268 192 599 64 108 175 205 287
248 51 19 77 23 168 21 59 -1 107 1 107 3 0 3 -24 33 -53 67 -28 34 -62 76
-74 92 -20 28 -25 30 -82 28 -35 -2 -61 2 -61 7 0 19 114 166 179 230 75 73
260 216 366 280 84 52 187 100 235 111 19 4 78 19 130 32 89 23 250 48 402 63
l67 7 -14 -55 c-19 -70 -26 -128 -17 -128 4 0 42 29 85 64 147 123 181 131
289 74 l62 -33 17 -75 c9 -41 23 -90 29 -109 l13 -34 18 38 c11 21 28 67 40
101 20 58 20 67 7 132 l-14 70 121 -5 c94 -5 149 -1 255 16 156 25 260 50 260
62 0 14 -59 11 -250 -11 -96 -11 -199 -20 -229 -20 -60 0 -59 -8 -18 98 13 35
30 68 38 73 35 22 174 59 246 64 220 16 424 47 491 75 26 11 45 1 145 -81 l57
-48 38 16 c20 8 59 26 86 40 44 23 53 24 95 13 25 -6 62 -13 81 -16 159 -18
270 -71 311 -147 16 -30 43 -60 70 -78 66 -44 164 -82 191 -76 22 6 159 135
166 156 4 11 -53 49 -133 88 -30 15 -55 31 -55 35 0 4 31 8 69 8 54 0 70 4 75
16 3 9 6 69 6 134 l0 118 -37 49 c-20 26 -66 82 -103 123 l-68 75 59 124 c33
69 56 128 52 132 -15 12 -107 39 -137 39 -43 0 -241 36 -300 55 -65 20 -128
58 -160 95 l-25 31 -210 9 c-204 8 -211 9 -312 45 -208 73 -261 86 -414 100
-243 24 -302 33 -463 71 l-152 36 -30 63 c-29 60 -32 64 -97 91 -38 15 -86 44
-108 65 -38 36 -247 140 -385 191 -30 12 -74 37 -96 57 -50 43 -107 79 -279
176 -123 69 -135 74 -220 83 -49 6 -157 14 -240 17 -188 7 -349 22 -440 41
-86 17 -358 42 -525 48 -69 3 -155 8 -190 12 -36 3 -67 4 -70 1z m-431 -1286
c24 -5 54 -20 69 -34 l25 -25 -42 -21 c-22 -12 -41 -23 -41 -25 0 -2 7 -19 15
-39 l14 -35 -113 -7 -113 -7 -44 31 c-23 18 -62 37 -86 43 -24 6 -45 14 -48
18 -3 4 17 28 44 53 l49 45 77 1 c43 0 80 3 83 6 8 7 60 5 111 -4z m-739 -323
c87 18 137 14 224 -17 45 -16 117 -41 161 -55 44 -15 84 -31 88 -35 9 -9 -1
-101 -13 -120 -11 -19 -284 -20 -335 -2 -22 8 -86 41 -142 74 l-103 59 0 58 0
58 32 -15 c27 -14 40 -14 88 -5z m1564 -185 c8 -206 17 -186 -89 -198 l-60 -7
33 34 c17 19 32 37 32 41 0 3 -24 18 -52 32 -71 33 -213 137 -213 154 0 8 19
19 45 26 52 14 217 77 257 99 16 8 31 11 34 8 4 -4 10 -89 13 -189z m296 48
c0 -138 0 -139 -33 -197 -28 -50 -37 -59 -64 -62 -29 -3 -33 1 -52 42 -61 139
-86 262 -67 324 8 25 26 29 134 31 l82 1 0 -139z m297 72 c-4 -38 -7 -80 -7
-94 0 -24 -7 -28 -87 -52 -136 -41 -140 -41 -145 -19 -3 10 -6 62 -7 115 l-2
96 43 5 c45 6 107 11 172 14 l39 2 -6 -67z m969 -147 c-21 -13 -73 -36 -116
-50 -65 -21 -97 -26 -201 -26 -143 -2 -211 13 -119 24 30 4 125 20 210 36 199
37 200 37 235 38 l30 1 -39 -23z m1534 -13 c0 0 -45 -26 -99 -57 l-100 -55
-43 19 -44 19 -68 -25 c-38 -13 -86 -39 -106 -57 -75 -63 -211 -140 -316 -178
-98 -35 -120 -39 -293 -53 -102 -8 -204 -21 -226 -29 -49 -17 -268 -71 -353
-86 -93 -17 -289 -79 -356 -112 -33 -17 -85 -47 -115 -67 -31 -21 -87 -57
-126 -80 -91 -56 -198 -131 -256 -181 -46 -40 -168 -196 -265 -338 -27 -40
-52 -73 -56 -73 -7 0 -14 30 -23 105 l-6 51 44 11 c62 17 91 58 88 125 -2 58
-26 102 -50 92 -38 -15 -148 -44 -169 -44 -38 0 -86 28 -106 60 -17 30 -17 30
6 31 13 1 41 3 63 5 22 1 48 3 57 3 16 1 17 11 13 94 l-4 92 -46 3 c-25 2 -45
5 -45 8 0 2 18 40 40 84 l40 80 114 0 c74 0 128 -5 155 -15 39 -14 44 -13 108
16 37 17 69 31 70 33 1 1 -7 35 -18 75 -11 40 -19 74 -17 76 5 4 237 54 283
61 61 9 65 20 20 58 l-40 34 43 11 c23 7 79 14 125 16 162 9 232 17 307 37 41
11 84 22 95 24 11 2 58 17 105 33 239 81 252 84 364 89 60 2 205 1 322 -3
l213 -7 -1 -34 c-1 -19 1 -36 3 -39 3 -2 22 1 44 7 35 11 39 10 52 -9 l15 -22
52 34 c114 73 165 84 358 82 82 -1 148 -3 148 -4z m-2460 -72 c0 -18 -96 -94
-146 -117 -65 -29 -162 -55 -169 -45 -6 11 48 82 83 108 60 44 232 84 232 54z
m-926 -453 l38 -31 93 31 c50 18 95 32 99 32 12 0 -44 -44 -99 -79 -31 -20
-52 -41 -55 -55 l-5 -24 -92 24 c-125 32 -173 58 -173 93 0 15 3 31 7 34 3 4
38 7 77 7 65 0 75 -3 110 -32z m228 -557 c5 -72 7 -76 44 -108 68 -59 72 -64
78 -95 3 -17 6 -55 6 -85 0 -45 3 -54 15 -49 8 3 22 9 30 12 12 5 15 -2 15
-35 0 -79 -61 -195 -190 -360 l-65 -83 -6 43 c-8 54 -13 259 -11 392 1 68 6
99 15 101 59 17 133 43 145 52 13 9 7 18 -33 55 -54 50 -75 91 -75 148 0 34
18 97 25 89 2 -2 5 -36 7 -77z"/>
<path d="M9005 9976 c-240 -48 -458 -192 -590 -392 -172 -259 -167 -627 13
-890 45 -66 154 -175 222 -221 227 -154 531 -186 796 -84 210 81 406 272 487
474 83 207 74 455 -23 647 -84 167 -256 331 -425 405 -146 65 -338 89 -480 61z
m318 -55 c191 -74 336 -316 378 -629 16 -117 6 -316 -20 -414 -62 -237 -220
-436 -388 -488 -88 -27 -218 -27 -305 0 -166 51 -311 227 -384 465 -26 85 -28
102 -28 280 0 164 3 202 22 278 72 287 211 468 402 523 71 21 251 12 323 -15z"/>
<path d="M17040 9980 c-30 -5 -99 -14 -152 -20 -71 -9 -98 -16 -98 -26 0 -8
10 -14 23 -14 47 -1 105 -37 129 -82 22 -41 23 -53 26 -310 2 -148 1 -268 -3
-268 -3 0 -21 11 -39 25 -132 101 -342 111 -495 24 -159 -91 -262 -299 -247
-499 20 -282 200 -460 465 -460 114 0 192 21 282 77 l37 22 6 -31 c3 -17 6
-41 6 -54 0 -12 3 -25 8 -28 4 -2 79 6 167 18 125 17 161 26 163 38 2 11 -8
17 -38 21 -57 7 -88 31 -113 85 -22 47 -22 54 -25 770 l-3 722 -22 -1 c-12 -1
-47 -5 -77 -9z m-225 -666 c86 -40 128 -111 144 -244 26 -205 8 -448 -39 -546
-80 -165 -279 -192 -403 -55 -86 95 -131 232 -130 396 0 93 4 123 27 190 51
149 130 241 236 276 36 12 123 3 165 -17z"/>
<path d="M17668 9974 c-57 -31 -66 -107 -19 -155 75 -75 203 -2 171 97 -22 66
-90 92 -152 58z"/>
<path d="M10375 9350 c-77 -11 -141 -19 -142 -19 -2 -1 -3 -5 -3 -11 0 -5 12
-13 28 -16 55 -14 84 -35 103 -80 40 -90 36 -683 -5 -762 -18 -35 -53 -57
-109 -67 -90 -17 -20 -25 224 -25 156 0 258 4 254 9 -3 5 -28 17 -55 26 -61
20 -97 61 -105 118 -4 24 -5 158 -3 298 5 290 12 327 78 402 55 62 110 87 192
87 94 0 144 -28 183 -105 l30 -59 0 -310 c0 -171 -3 -323 -7 -338 -14 -48 -54
-85 -108 -98 -28 -7 -50 -16 -50 -21 0 -5 111 -9 255 -9 254 0 301 7 213 30
-104 29 -114 53 -123 290 -8 220 5 391 35 473 41 109 147 169 269 152 83 -11
143 -63 172 -150 16 -45 20 -563 6 -647 -11 -61 -49 -103 -111 -119 -25 -6
-46 -15 -46 -20 0 -5 115 -9 255 -9 140 0 255 3 255 8 0 4 -25 16 -57 27 -65
23 -91 53 -104 116 -4 24 -8 174 -9 333 0 193 -4 302 -12 328 -6 22 -31 61
-55 88 -128 142 -389 130 -563 -27 -28 -25 -52 -44 -53 -42 -39 56 -100 115
-141 136 -126 64 -320 27 -446 -85 l-45 -40 -15 76 c-10 53 -20 77 -30 78 -8
1 -78 -6 -155 -16z"/>
<path d="M13994 9355 c-120 -26 -184 -74 -184 -136 0 -29 7 -43 31 -63 61 -51
115 -28 159 68 37 81 66 108 129 114 64 6 92 -2 132 -35 59 -50 88 -156 74
-268 -12 -101 -56 -133 -270 -194 -75 -21 -157 -52 -183 -68 -117 -72 -147
-240 -60 -339 50 -57 100 -77 204 -82 114 -5 174 12 250 74 29 24 58 44 62 44
5 0 22 -18 37 -40 38 -55 94 -80 181 -80 81 0 137 26 167 77 27 48 11 61 -28
23 -28 -28 -38 -31 -80 -28 -95 6 -103 43 -104 481 -1 302 -4 319 -57 369 -85
79 -299 118 -460 83z m336 -744 c-24 -141 -102 -221 -214 -221 -87 0 -155 96
-143 199 12 104 61 161 211 246 54 30 110 65 125 76 l26 21 3 -129 c2 -70 -2
-157 -8 -192z"/>
<path d="M14977 9350 c-71 -10 -131 -21 -135 -25 -9 -9 19 -25 47 -25 32 0 88
-62 98 -108 10 -49 10 -613 0 -674 -11 -61 -49 -103 -111 -119 -25 -6 -46 -15
-46 -20 0 -5 115 -9 255 -9 140 0 255 3 255 8 0 4 -26 16 -57 27 -69 24 -99
62 -108 139 -11 82 0 566 13 605 53 160 276 226 405 120 66 -54 72 -91 72
-439 0 -292 -1 -307 -22 -352 -22 -48 -51 -70 -110 -83 -87 -18 -28 -25 216
-25 144 0 261 4 261 8 0 5 -24 16 -53 25 -63 20 -91 47 -106 102 -7 25 -11
156 -11 344 0 201 -4 317 -12 342 -48 163 -309 230 -518 133 -30 -14 -73 -41
-97 -60 l-43 -35 0 33 c0 18 -3 50 -6 71 -8 44 2 43 -187 17z"/>
<path d="M17626 9349 c-76 -10 -141 -21 -145 -24 -9 -9 21 -25 48 -25 13 0 38
-15 56 -33 51 -51 57 -102 53 -450 -3 -254 -6 -308 -20 -339 -18 -41 -62 -73
-114 -83 -19 -3 -34 -10 -34 -15 0 -6 100 -10 255 -10 140 0 255 4 255 8 0 5
-19 14 -42 21 -56 17 -86 38 -106 75 -15 28 -17 79 -20 464 l-3 432 -22 -1
c-12 -1 -84 -10 -161 -20z"/>
<path d="M12140 9341 c0 -5 16 -15 36 -21 66 -22 83 -61 234 -522 131 -398
143 -429 163 -426 18 3 43 58 171 381 82 208 153 374 156 370 4 -4 62 -176
129 -380 112 -342 123 -373 144 -373 20 0 35 33 141 303 202 512 226 567 267
608 20 20 51 40 68 44 73 16 21 25 -139 25 -105 0 -170 -4 -170 -10 0 -5 17
-17 37 -25 79 -33 102 -85 78 -176 -24 -90 -203 -535 -209 -519 -34 89 -167
565 -168 597 -1 56 22 90 72 103 84 23 39 30 -180 30 -121 0 -220 -4 -220 -8
0 -5 18 -14 39 -21 50 -14 81 -53 81 -98 0 -32 -209 -612 -220 -612 -14 0
-189 569 -190 615 0 45 33 82 86 95 24 6 44 15 44 20 0 5 -101 9 -225 9 -131
0 -225 -4 -225 -9z"/>
</g>
</svg>
